<svg width="13" height="13" viewBox="0 0 13 13" fill="none" xmlns="http://www.w3.org/2000/svg">
<path d="M10.7142 9.59924C9.82575 9.81258 8.89826 9.80224 8.01479 9.56916C7.13131 9.33608 6.31944 8.88753 5.65185 8.26369C4.98427 7.63984 4.48183 6.86016 4.18952 5.99448C3.8972 5.12879 3.82415 4.20413 3.97689 3.30328C3.95366 3.32572 3.92913 3.34677 3.90344 3.36633C3.72144 3.50479 3.49394 3.55614 3.03893 3.65884L2.62618 3.75244C1.02716 4.11449 0.227655 4.29519 0.0372031 4.90685C-0.152599 5.51785 0.392107 6.15551 1.48217 7.43017L1.76427 7.75973C2.07367 8.12178 2.22902 8.30313 2.29857 8.52673C2.36812 8.75098 2.34472 8.99279 2.29792 9.47574L2.25502 9.9158C2.09057 11.6169 2.00802 12.4671 2.50593 12.8447C3.00383 13.223 3.75264 12.8785 5.24895 12.1889L5.637 12.0108C6.06211 11.8145 6.27466 11.717 6.50021 11.717C6.72576 11.717 6.93832 11.8145 7.36407 12.0108L7.75082 12.1889C9.24779 12.8779 9.99659 13.2224 10.4938 12.8454C10.9924 12.4671 10.9099 11.6169 10.7454 9.9158L10.7142 9.59924Z" fill="#0057FF"/>
<path opacity="0.5" d="M4.6493 2.21513L4.43609 2.59733C4.20209 3.01724 4.08509 3.22719 3.90309 3.36564C3.92909 3.34614 3.95314 3.32534 3.97654 3.30259C3.82376 4.2035 3.89681 5.12824 4.18916 5.99399C4.4815 6.85974 4.98401 7.63947 5.65167 8.26333C6.31934 8.8872 7.13131 9.33573 8.01488 9.56875C8.89844 9.80177 9.82601 9.81201 10.7145 9.59855L10.7015 9.47505C10.6554 8.99209 10.632 8.75029 10.7015 8.52604C10.7711 8.30243 10.9258 8.12108 11.2358 7.75903L11.5179 7.42948C12.608 6.15547 13.1527 5.51781 12.9622 4.90615C12.7724 4.2945 11.9729 4.11315 10.3739 3.75174L9.9605 3.65814C9.50614 3.55544 9.27864 3.50409 9.09599 3.36564C8.91399 3.22719 8.79699 3.01724 8.56298 2.59733L8.35043 2.21513C7.52687 0.738315 7.11542 -9.15527e-05 6.49986 -9.15527e-05C5.88431 -9.15527e-05 5.47285 0.738315 4.6493 2.21513Z" fill="#0057FF"/>
</svg>
